<?xml version="1.0" encoding="UTF-8" standalone="no"?>
<!-- Created with Inkscape (http://www.inkscape.org/) -->

<svg
   version="1.1"
   id="svg2"
   width="99.998268"
   height="26.777"
   viewBox="0 0 99.998268 26.777"
   sodipodi:docname="opi_logo_horizontal.svg"
   inkscape:version="1.2.2 (b0a8486541, 2022-12-01)"
   xmlns:inkscape="http://www.inkscape.org/namespaces/inkscape"
   xmlns:sodipodi="http://sodipodi.sourceforge.net/DTD/sodipodi-0.dtd"
   xmlns="http://www.w3.org/2000/svg"
   xmlns:svg="http://www.w3.org/2000/svg">
  <defs
     id="defs6">
    <clipPath
       clipPathUnits="userSpaceOnUse"
       id="clipPath20">
      <path
         d="M 20.082,0 H 41.613 V 20.082 H 20.082 Z"
         id="path18" />
    </clipPath>
    <clipPath
       clipPathUnits="userSpaceOnUse"
       id="clipPath30">
      <path
         d="M 0,0 H 75 V 21 H 0 Z"
         id="path28" />
    </clipPath>
    <linearGradient
       x1="0"
       y1="0"
       x2="1"
       y2="0"
       gradientUnits="userSpaceOnUse"
       gradientTransform="matrix(0,-24.602259,24.602259,0,13.391089,25.111979)"
       spreadMethod="pad"
       id="linearGradient52">
      <stop
         style="stop-opacity:1;stop-color:#00aec3"
         offset="0"
         id="stop44" />
      <stop
         style="stop-opacity:1;stop-color:#00aec3"
         offset="0.05"
         id="stop46" />
      <stop
         style="stop-opacity:1;stop-color:#a3d8e3"
         offset="0.95"
         id="stop48" />
      <stop
         style="stop-opacity:1;stop-color:#a3d8e3"
         offset="1"
         id="stop50" />
    </linearGradient>
    <clipPath
       clipPathUnits="userSpaceOnUse"
       id="clipPath64">
      <path
         d="M 0,0 H 75 V 21 H 0 Z"
         id="path62" />
    </clipPath>
    <linearGradient
       x1="0"
       y1="0"
       x2="1"
       y2="0"
       gradientUnits="userSpaceOnUse"
       gradientTransform="matrix(0,-24.602259,24.602259,0,6.934799,25.111979)"
       spreadMethod="pad"
       id="linearGradient86">
      <stop
         style="stop-opacity:1;stop-color:#00aec3"
         offset="0"
         id="stop78" />
      <stop
         style="stop-opacity:1;stop-color:#00aec3"
         offset="0.05"
         id="stop80" />
      <stop
         style="stop-opacity:1;stop-color:#a3d8e3"
         offset="0.95"
         id="stop82" />
      <stop
         style="stop-opacity:1;stop-color:#a3d8e3"
         offset="1"
         id="stop84" />
    </linearGradient>
    <clipPath
       clipPathUnits="userSpaceOnUse"
       id="clipPath98">
      <path
         d="M 0,0 H 75 V 21 H 0 Z"
         id="path96" />
    </clipPath>
    <linearGradient
       x1="0"
       y1="0"
       x2="1"
       y2="0"
       gradientUnits="userSpaceOnUse"
       gradientTransform="matrix(0,-24.602259,24.602259,0,9.237169,25.111979)"
       spreadMethod="pad"
       id="linearGradient120">
      <stop
         style="stop-opacity:1;stop-color:#00aec3"
         offset="0"
         id="stop112" />
      <stop
         style="stop-opacity:1;stop-color:#00aec3"
         offset="0.05"
         id="stop114" />
      <stop
         style="stop-opacity:1;stop-color:#a3d8e3"
         offset="0.95"
         id="stop116" />
      <stop
         style="stop-opacity:1;stop-color:#a3d8e3"
         offset="1"
         id="stop118" />
    </linearGradient>
    <clipPath
       clipPathUnits="userSpaceOnUse"
       id="clipPath132">
      <path
         d="M 0,0 H 75 V 21 H 0 Z"
         id="path130" />
    </clipPath>
    <linearGradient
       x1="0"
       y1="0"
       x2="1"
       y2="0"
       gradientUnits="userSpaceOnUse"
       gradientTransform="matrix(0,-24.602259,24.602259,0,18.511949,25.111979)"
       spreadMethod="pad"
       id="linearGradient154">
      <stop
         style="stop-opacity:1;stop-color:#00aec3"
         offset="0"
         id="stop146" />
      <stop
         style="stop-opacity:1;stop-color:#00aec3"
         offset="0.05"
         id="stop148" />
      <stop
         style="stop-opacity:1;stop-color:#a3d8e3"
         offset="0.95"
         id="stop150" />
      <stop
         style="stop-opacity:1;stop-color:#a3d8e3"
         offset="1"
         id="stop152" />
    </linearGradient>
    <clipPath
       clipPathUnits="userSpaceOnUse"
       id="clipPath166">
      <path
         d="M 0,0 H 75 V 21 H 0 Z"
         id="path164" />
    </clipPath>
    <linearGradient
       x1="0"
       y1="0"
       x2="1"
       y2="0"
       gradientUnits="userSpaceOnUse"
       gradientTransform="matrix(0,-24.602259,24.602259,0,22.725759,25.111979)"
       spreadMethod="pad"
       id="linearGradient188">
      <stop
         style="stop-opacity:1;stop-color:#00aec3"
         offset="0"
         id="stop180" />
      <stop
         style="stop-opacity:1;stop-color:#00aec3"
         offset="0.05"
         id="stop182" />
      <stop
         style="stop-opacity:1;stop-color:#a3d8e3"
         offset="0.95"
         id="stop184" />
      <stop
         style="stop-opacity:1;stop-color:#a3d8e3"
         offset="1"
         id="stop186" />
    </linearGradient>
    <clipPath
       clipPathUnits="userSpaceOnUse"
       id="clipPath200">
      <path
         d="M 0,0 H 75 V 21 H 0 Z"
         id="path198" />
    </clipPath>
    <linearGradient
       x1="0"
       y1="0"
       x2="1"
       y2="0"
       gradientUnits="userSpaceOnUse"
       gradientTransform="matrix(0,-24.602259,24.602259,0,29.390668,25.111979)"
       spreadMethod="pad"
       id="linearGradient222">
      <stop
         style="stop-opacity:1;stop-color:#00aec3"
         offset="0"
         id="stop214" />
      <stop
         style="stop-opacity:1;stop-color:#00aec3"
         offset="0.05"
         id="stop216" />
      <stop
         style="stop-opacity:1;stop-color:#a3d8e3"
         offset="0.95"
         id="stop218" />
      <stop
         style="stop-opacity:1;stop-color:#a3d8e3"
         offset="1"
         id="stop220" />
    </linearGradient>
    <clipPath
       clipPathUnits="userSpaceOnUse"
       id="clipPath234">
      <path
         d="M 0,0 H 75 V 21 H 0 Z"
         id="path232" />
    </clipPath>
    <linearGradient
       x1="0"
       y1="0"
       x2="1"
       y2="0"
       gradientUnits="userSpaceOnUse"
       gradientTransform="matrix(0,-24.602259,24.602259,0,24.393278,25.111979)"
       spreadMethod="pad"
       id="linearGradient256">
      <stop
         style="stop-opacity:1;stop-color:#00aec3"
         offset="0"
         id="stop248" />
      <stop
         style="stop-opacity:1;stop-color:#00aec3"
         offset="0.05"
         id="stop250" />
      <stop
         style="stop-opacity:1;stop-color:#a3d8e3"
         offset="0.95"
         id="stop252" />
      <stop
         style="stop-opacity:1;stop-color:#a3d8e3"
         offset="1"
         id="stop254" />
    </linearGradient>
    <clipPath
       clipPathUnits="userSpaceOnUse"
       id="clipPath268">
      <path
         d="M 0,0 H 75 V 21 H 0 Z"
         id="path266" />
    </clipPath>
    <linearGradient
       x1="0"
       y1="0"
       x2="1"
       y2="0"
       gradientUnits="userSpaceOnUse"
       gradientTransform="matrix(0,-24.602259,24.602259,0,34.668888,25.111979)"
       spreadMethod="pad"
       id="linearGradient290">
      <stop
         style="stop-opacity:1;stop-color:#00aec3"
         offset="0"
         id="stop282" />
      <stop
         style="stop-opacity:1;stop-color:#00aec3"
         offset="0.05"
         id="stop284" />
      <stop
         style="stop-opacity:1;stop-color:#a3d8e3"
         offset="0.95"
         id="stop286" />
      <stop
         style="stop-opacity:1;stop-color:#a3d8e3"
         offset="1"
         id="stop288" />
    </linearGradient>
    <clipPath
       clipPathUnits="userSpaceOnUse"
       id="clipPath302">
      <path
         d="M 0,0 H 75 V 21 H 0 Z"
         id="path300" />
    </clipPath>
    <linearGradient
       x1="0"
       y1="0"
       x2="1"
       y2="0"
       gradientUnits="userSpaceOnUse"
       gradientTransform="matrix(0,-24.602259,24.602259,0,34.228978,25.111979)"
       spreadMethod="pad"
       id="linearGradient324">
      <stop
         style="stop-opacity:1;stop-color:#00aec3"
         offset="0"
         id="stop316" />
      <stop
         style="stop-opacity:1;stop-color:#00aec3"
         offset="0.05"
         id="stop318" />
      <stop
         style="stop-opacity:1;stop-color:#a3d8e3"
         offset="0.95"
         id="stop320" />
      <stop
         style="stop-opacity:1;stop-color:#a3d8e3"
         offset="1"
         id="stop322" />
    </linearGradient>
    <clipPath
       clipPathUnits="userSpaceOnUse"
       id="clipPath336">
      <path
         d="M 0,0 H 75 V 21 H 0 Z"
         id="path334" />
    </clipPath>
    <linearGradient
       x1="0"
       y1="0"
       x2="1"
       y2="0"
       gradientUnits="userSpaceOnUse"
       gradientTransform="matrix(0,-24.602259,24.602259,0,27.221218,25.111979)"
       spreadMethod="pad"
       id="linearGradient358">
      <stop
         style="stop-opacity:1;stop-color:#00aec3"
         offset="0"
         id="stop350" />
      <stop
         style="stop-opacity:1;stop-color:#00aec3"
         offset="0.05"
         id="stop352" />
      <stop
         style="stop-opacity:1;stop-color:#a3d8e3"
         offset="0.95"
         id="stop354" />
      <stop
         style="stop-opacity:1;stop-color:#a3d8e3"
         offset="1"
         id="stop356" />
    </linearGradient>
    <clipPath
       clipPathUnits="userSpaceOnUse"
       id="clipPath370">
      <path
         d="M 0,0 H 75 V 21 H 0 Z"
         id="path368" />
    </clipPath>
    <linearGradient
       x1="0"
       y1="0"
       x2="1"
       y2="0"
       gradientUnits="userSpaceOnUse"
       gradientTransform="matrix(0,-24.602259,24.602259,0,22.116399,25.111979)"
       spreadMethod="pad"
       id="linearGradient392">
      <stop
         style="stop-opacity:1;stop-color:#00aec3"
         offset="0"
         id="stop384" />
      <stop
         style="stop-opacity:1;stop-color:#00aec3"
         offset="0.05"
         id="stop386" />
      <stop
         style="stop-opacity:1;stop-color:#a3d8e3"
         offset="0.95"
         id="stop388" />
      <stop
         style="stop-opacity:1;stop-color:#a3d8e3"
         offset="1"
         id="stop390" />
    </linearGradient>
    <clipPath
       clipPathUnits="userSpaceOnUse"
       id="clipPath404">
      <path
         d="M 0,0 H 75 V 21 H 0 Z"
         id="path402" />
    </clipPath>
    <linearGradient
       x1="0"
       y1="0"
       x2="1"
       y2="0"
       gradientUnits="userSpaceOnUse"
       gradientTransform="matrix(0,-24.602259,24.602259,0,37.542628,25.111979)"
       spreadMethod="pad"
       id="linearGradient426">
      <stop
         style="stop-opacity:1;stop-color:#00aec3"
         offset="0"
         id="stop418" />
      <stop
         style="stop-opacity:1;stop-color:#00aec3"
         offset="0.05"
         id="stop420" />
      <stop
         style="stop-opacity:1;stop-color:#a3d8e3"
         offset="0.95"
         id="stop422" />
      <stop
         style="stop-opacity:1;stop-color:#a3d8e3"
         offset="1"
         id="stop424" />
    </linearGradient>
    <clipPath
       clipPathUnits="userSpaceOnUse"
       id="clipPath438">
      <path
         d="M 0,0 H 75 V 21 H 0 Z"
         id="path436" />
    </clipPath>
    <linearGradient
       x1="0"
       y1="0"
       x2="1"
       y2="0"
       gradientUnits="userSpaceOnUse"
       gradientTransform="matrix(0,-24.602259,24.602259,0,28.458348,25.111979)"
       spreadMethod="pad"
       id="linearGradient460">
      <stop
         style="stop-opacity:1;stop-color:#00aec3"
         offset="0"
         id="stop452" />
      <stop
         style="stop-opacity:1;stop-color:#00aec3"
         offset="0.05"
         id="stop454" />
      <stop
         style="stop-opacity:1;stop-color:#a3d8e3"
         offset="0.95"
         id="stop456" />
      <stop
         style="stop-opacity:1;stop-color:#a3d8e3"
         offset="1"
         id="stop458" />
    </linearGradient>
    <clipPath
       clipPathUnits="userSpaceOnUse"
       id="clipPath472">
      <path
         d="M 0,0 H 75 V 21 H 0 Z"
         id="path470" />
    </clipPath>
    <linearGradient
       x1="0"
       y1="0"
       x2="1"
       y2="0"
       gradientUnits="userSpaceOnUse"
       gradientTransform="matrix(0,-24.602259,24.602259,0,14.711289,25.111979)"
       spreadMethod="pad"
       id="linearGradient494">
      <stop
         style="stop-opacity:1;stop-color:#00aec3"
         offset="0"
         id="stop486" />
      <stop
         style="stop-opacity:1;stop-color:#00aec3"
         offset="0.05"
         id="stop488" />
      <stop
         style="stop-opacity:1;stop-color:#a3d8e3"
         offset="0.95"
         id="stop490" />
      <stop
         style="stop-opacity:1;stop-color:#a3d8e3"
         offset="1"
         id="stop492" />
    </linearGradient>
    <clipPath
       clipPathUnits="userSpaceOnUse"
       id="clipPath506">
      <path
         d="M 0,0 H 75 V 21 H 0 Z"
         id="path504" />
    </clipPath>
    <linearGradient
       x1="0"
       y1="0"
       x2="1"
       y2="0"
       gradientUnits="userSpaceOnUse"
       gradientTransform="matrix(0,-24.602259,24.602259,0,4.669529,25.111979)"
       spreadMethod="pad"
       id="linearGradient528">
      <stop
         style="stop-opacity:1;stop-color:#00aec3"
         offset="0"
         id="stop520" />
      <stop
         style="stop-opacity:1;stop-color:#00aec3"
         offset="0.05"
         id="stop522" />
      <stop
         style="stop-opacity:1;stop-color:#a3d8e3"
         offset="0.95"
         id="stop524" />
      <stop
         style="stop-opacity:1;stop-color:#a3d8e3"
         offset="1"
         id="stop526" />
    </linearGradient>
    <clipPath
       clipPathUnits="userSpaceOnUse"
       id="clipPath540">
      <path
         d="M 0,0 H 75 V 21 H 0 Z"
         id="path538" />
    </clipPath>
    <linearGradient
       x1="0"
       y1="0"
       x2="1"
       y2="0"
       gradientUnits="userSpaceOnUse"
       gradientTransform="matrix(0,-24.602259,24.602259,0,1.760579,25.111979)"
       spreadMethod="pad"
       id="linearGradient562">
      <stop
         style="stop-opacity:1;stop-color:#00aec3"
         offset="0"
         id="stop554" />
      <stop
         style="stop-opacity:1;stop-color:#00aec3"
         offset="0.05"
         id="stop556" />
      <stop
         style="stop-opacity:1;stop-color:#a3d8e3"
         offset="0.95"
         id="stop558" />
      <stop
         style="stop-opacity:1;stop-color:#a3d8e3"
         offset="1"
         id="stop560" />
    </linearGradient>
    <linearGradient
       x1="26.648937"
       y1="20.603781"
       x2="135.66525"
       y2="114.39767"
       gradientUnits="userSpaceOnUse"
       gradientTransform="matrix(0.0816979,0,0,0.0824866,-2.177161,-0.113681)"
       spreadMethod="pad"
       id="linearGradient584">
      <stop
         style="stop-opacity:1;stop-color:#5a9fd4"
         offset="0"
         id="stop580" />
      <stop
         style="stop-opacity:1;stop-color:#306998"
         offset="1"
         id="stop582" />
    </linearGradient>
    <linearGradient
       x1="150.96111"
       y1="192.35176"
       x2="112.03144"
       y2="137.27299"
       gradientUnits="userSpaceOnUse"
       gradientTransform="matrix(0.0816979,0,0,0.0824866,-2.177161,-0.113681)"
       spreadMethod="pad"
       id="linearGradient602">
      <stop
         style="stop-opacity:1;stop-color:#ffd43b"
         offset="0"
         id="stop598" />
      <stop
         style="stop-opacity:1;stop-color:#ffe873"
         offset="1"
         id="stop600" />
    </linearGradient>
  </defs>
  <sodipodi:namedview
     id="namedview4"
     pagecolor="#505050"
     bordercolor="#eeeeee"
     borderopacity="1"
     inkscape:showpageshadow="0"
     inkscape:pageopacity="0"
     inkscape:pagecheckerboard="0"
     inkscape:deskcolor="#505050"
     showgrid="false"
     inkscape:zoom="15.220264"
     inkscape:cx="50.031985"
     inkscape:cy="13.403184"
     inkscape:window-width="1920"
     inkscape:window-height="961"
     inkscape:window-x="0"
     inkscape:window-y="32"
     inkscape:window-maximized="1"
     inkscape:current-layer="g10">
    <inkscape:page
       x="0"
       y="0"
       id="page8"
       width="99.998268"
       height="26.777" />
  </sodipodi:namedview>
  <g
     id="g10"
     inkscape:groupmode="layer"
     inkscape:label="Page 1"
     transform="scale(1.3333333)">
    <g
       id="g12" />
    <g
       id="g14">
      <g
         id="g16"
         clip-path="url(#clipPath20)">
        <g
           id="g22">
          <g
             id="g24">
            <g
               id="g26"
               clip-path="url(#clipPath30)">
              <g
                 id="g32">
                <g
                   id="g34">
                  <g
                     id="g36">
                    <g
                       id="g42">
                      <path
                         d="m 10.027,10.504 2.762,1.976 3.965,-2.414 -1.563,-2.734 z"
                         style="fill:url(#linearGradient52);stroke:none"
                         id="path54" />
                    </g>
                  </g>
                </g>
              </g>
            </g>
          </g>
        </g>
        <g
           id="g56">
          <g
             id="g58">
            <g
               id="g60"
               clip-path="url(#clipPath64)">
              <g
                 id="g66">
                <g
                   id="g68">
                  <g
                     id="g70">
                    <g
                       id="g76">
                      <path
                         d="m 5.152,16.473 0.067,0.593 0.269,2.512 3.227,-7.59 z"
                         style="fill:url(#linearGradient86);stroke:none"
                         id="path88" />
                    </g>
                  </g>
                </g>
              </g>
            </g>
          </g>
        </g>
        <g
           id="g90">
          <g
             id="g92">
            <g
               id="g94"
               clip-path="url(#clipPath98)">
              <g
                 id="g100">
                <g
                   id="g102">
                  <g
                     id="g104">
                    <g
                       id="g110">
                      <path
                         d="M 6.051,19.449 12.426,12.793 9.707,10.848 Z"
                         style="fill:url(#linearGradient120);stroke:none"
                         id="path122" />
                    </g>
                  </g>
                </g>
              </g>
            </g>
          </g>
        </g>
        <g
           id="g124">
          <g
             id="g126">
            <g
               id="g128"
               clip-path="url(#clipPath132)">
              <g
                 id="g134">
                <g
                   id="g136">
                  <g
                     id="g138">
                    <g
                       id="g144">
                      <path
                         d="M 15.613,7.125 17.152,9.824 21.41,7.195 20.883,5.098 Z"
                         style="fill:url(#linearGradient154);stroke:none"
                         id="path156" />
                    </g>
                  </g>
                </g>
              </g>
            </g>
          </g>
        </g>
        <g
           id="g158">
          <g
             id="g160">
            <g
               id="g162"
               clip-path="url(#clipPath166)">
              <g
                 id="g168">
                <g
                   id="g170">
                  <g
                     id="g172">
                    <g
                       id="g178">
                      <path
                         d="m 19.246,9.082 0.883,4.414 6.078,0.902 -4.598,-6.777 z"
                         style="fill:url(#linearGradient188);stroke:none"
                         id="path190" />
                    </g>
                  </g>
                </g>
              </g>
            </g>
          </g>
        </g>
        <g
           id="g192">
          <g
             id="g194">
            <g
               id="g196"
               clip-path="url(#clipPath200)">
              <g
                 id="g202">
                <g
                   id="g204">
                  <g
                     id="g206">
                    <g
                       id="g212">
                      <path
                         d="m 27.297,7.988 4.215,1.989 2.183,0.461 -1.84,-3.395 -6.769,-1.789 z"
                         style="fill:url(#linearGradient222);stroke:none"
                         id="path224" />
                    </g>
                  </g>
                </g>
              </g>
            </g>
          </g>
        </g>
        <g
           id="g226">
          <g
             id="g228">
            <g
               id="g230"
               clip-path="url(#clipPath234)">
              <g
                 id="g236">
                <g
                   id="g238">
                  <g
                     id="g240">
                    <g
                       id="g246">
                      <path
                         d="m 22.203,7.152 4.379,0.7 -2.156,-2.672 z"
                         style="fill:url(#linearGradient256);stroke:none"
                         id="path258" />
                    </g>
                  </g>
                </g>
              </g>
            </g>
          </g>
        </g>
        <g
           id="g260">
          <g
             id="g262">
            <g
               id="g264"
               clip-path="url(#clipPath268)">
              <g
                 id="g270">
                <g
                   id="g272">
                  <g
                     id="g274">
                    <g
                       id="g280">
                      <path
                         d="M 35.711,13.188 36.684,10.129 32.652,7.531 Z"
                         style="fill:url(#linearGradient290);stroke:none"
                         id="path292" />
                    </g>
                  </g>
                </g>
              </g>
            </g>
          </g>
        </g>
        <g
           id="g294">
          <g
             id="g296">
            <g
               id="g298"
               clip-path="url(#clipPath302)">
              <g
                 id="g304">
                <g
                   id="g306">
                  <g
                     id="g308">
                    <g
                       id="g314">
                      <path
                         d="m 30.641,15.457 7.175,1.465 -2.191,-2.942 -2.961,-0.941 z"
                         style="fill:url(#linearGradient324);stroke:none"
                         id="path326" />
                    </g>
                  </g>
                </g>
              </g>
            </g>
          </g>
        </g>
        <g
           id="g328">
          <g
             id="g330">
            <g
               id="g332"
               clip-path="url(#clipPath336)">
              <g
                 id="g338">
                <g
                   id="g340">
                  <g
                     id="g342">
                    <g
                       id="g348">
                      <path
                         d="M 26.793,14.434 32.27,12.629 31.258,10.375 27.078,8.402 22.176,7.621 Z"
                         style="fill:url(#linearGradient358);stroke:none"
                         id="path360" />
                    </g>
                  </g>
                </g>
              </g>
            </g>
          </g>
        </g>
        <g
           id="g362">
          <g
             id="g364">
            <g
               id="g366"
               clip-path="url(#clipPath370)">
              <g
                 id="g372">
                <g
                   id="g374">
                  <g
                     id="g376">
                    <g
                       id="g382">
                      <path
                         d="m 20.082,0 1.73,6.875 2.34,-2.07 -2.125,-3.258 z"
                         style="fill:url(#linearGradient392);stroke:none"
                         id="path394" />
                    </g>
                  </g>
                </g>
              </g>
            </g>
          </g>
        </g>
        <g
           id="g396">
          <g
             id="g398">
            <g
               id="g400"
               clip-path="url(#clipPath404)">
              <g
                 id="g406">
                <g
                   id="g408">
                  <g
                     id="g410">
                    <g
                       id="g416">
                      <path
                         d="m 36.027,13.738 2.27,3.043 0.762,-2.164 -2.047,-3.976 z"
                         style="fill:url(#linearGradient426);stroke:none"
                         id="path428" />
                    </g>
                  </g>
                </g>
              </g>
            </g>
          </g>
        </g>
        <g
           id="g430">
          <g
             id="g432">
            <g
               id="g434"
               clip-path="url(#clipPath438)">
              <g
                 id="g440">
                <g
                   id="g442">
                  <g
                     id="g444">
                    <g
                       id="g450">
                      <path
                         d="m 26.852,14.906 -1.817,2.969 2.043,-0.25 2.969,-2.191 1.836,-2.184 z"
                         style="fill:url(#linearGradient460);stroke:none"
                         id="path462" />
                    </g>
                  </g>
                </g>
              </g>
            </g>
          </g>
        </g>
        <g
           id="g464">
          <g
             id="g466">
            <g
               id="g468"
               clip-path="url(#clipPath472)">
              <g
                 id="g474">
                <g
                   id="g476">
                  <g
                     id="g478">
                    <g
                       id="g484">
                      <path
                         d="M 17.191,10.348 12.926,12.945 11.723,14.203 9.762,16.25 19.66,13.535 18.82,9.344 Z"
                         style="fill:url(#linearGradient494);stroke:none"
                         id="path496" />
                    </g>
                  </g>
                </g>
              </g>
            </g>
          </g>
        </g>
        <g
           id="g498">
          <g
             id="g500">
            <g
               id="g502"
               clip-path="url(#clipPath506)">
              <g
                 id="g508">
                <g
                   id="g510">
                  <g
                     id="g512">
                    <g
                       id="g518">
                      <path
                         d="m 3.465,21.684 2.406,3.964 -0.75,-5.101 c 0,-0.004 0,-0.004 0,-0.008 L 4.797,17.527 Z"
                         style="fill:url(#linearGradient528);stroke:none"
                         id="path530" />
                    </g>
                  </g>
                </g>
              </g>
            </g>
          </g>
        </g>
        <g
           id="g532">
          <g
             id="g534">
            <g
               id="g536"
               clip-path="url(#clipPath540)">
              <g
                 id="g542">
                <g
                   id="g544">
                  <g
                     id="g546">
                    <g
                       id="g552">
                      <path
                         d="m -0.266,20.785 3.317,0.66 0.734,-2.293 z"
                         style="fill:url(#linearGradient562);stroke:none"
                         id="path564" />
                    </g>
                  </g>
                </g>
              </g>
            </g>
          </g>
        </g>
      </g>
    </g>
    <g
       id="g566">
      <path
         d="M 17.945,20.078 C 17.871,20.074 17.812,20.016 17.812,19.941 V 0.145 c 0,-0.079 0.059,-0.137 0.133,-0.137 0.075,0 0.137,0.058 0.137,0.137 v 19.796 c 0,0.075 -0.062,0.137 -0.137,0.137 z"
         style="fill:#d6d6d6;fill-opacity:1;fill-rule:nonzero;stroke:none"
         id="path568" />
      <g
         id="g570">
        <g
           id="g572">
          <g
             id="g578">
            <path
               d="M 7.977,1.586 C 7.309,1.59 6.676,1.645 6.113,1.746 4.469,2.035 4.168,2.645 4.168,3.77 V 5.254 H 8.062 V 5.746 H 2.707 c -1.133,0 -2.121,0.684 -2.434,1.977 -0.355,1.484 -0.371,2.406 0,3.957 0.278,1.152 0.938,1.972 2.071,1.972 h 1.34 v -1.777 c 0,-1.285 1.109,-2.418 2.429,-2.418 h 3.891 c 1.082,0 1.949,-0.895 1.949,-1.98 V 3.77 C 11.953,2.715 11.062,1.922 10.004,1.746 9.336,1.633 8.641,1.582 7.977,1.586 Z M 5.871,2.781 c 0.402,0 0.731,0.332 0.731,0.742 0,0.411 -0.329,0.739 -0.731,0.739 -0.406,0 -0.73,-0.328 -0.73,-0.739 0,-0.41 0.324,-0.742 0.73,-0.742 z"
               style="fill:url(#linearGradient584);stroke:none"
               id="path586" />
          </g>
        </g>
      </g>
      <g
         id="g588">
        <g
           id="g590">
          <g
             id="g596">
            <path
               d="m 12.438,5.746 v 1.731 c 0,1.339 -1.137,2.468 -2.434,2.468 H 6.113 c -1.062,0 -1.945,0.914 -1.945,1.981 v 3.707 c 0,1.055 0.918,1.676 1.945,1.976 1.235,0.364 2.418,0.43 3.891,0 0.98,-0.281 1.949,-0.851 1.949,-1.976 V 14.148 H 8.062 v -0.496 h 5.836 c 1.133,0 1.555,-0.789 1.946,-1.972 0.41,-1.219 0.39,-2.395 0,-3.957 C 15.566,6.594 15.031,5.746 13.898,5.746 Z m -2.188,9.391 c 0.402,0 0.73,0.332 0.73,0.742 0,0.41 -0.328,0.742 -0.73,0.742 -0.402,0 -0.73,-0.332 -0.73,-0.742 0,-0.41 0.328,-0.742 0.73,-0.742 z"
               style="fill:url(#linearGradient602);stroke:none"
               id="path604" />
          </g>
        </g>
      </g>
      <path
         d="m 44.832,19.203 c -0.207,0 -0.394,-0.047 -0.555,-0.141 -0.16,-0.097 -0.289,-0.226 -0.379,-0.398 -0.089,-0.168 -0.136,-0.363 -0.136,-0.582 0,-0.223 0.043,-0.418 0.133,-0.586 0.093,-0.168 0.218,-0.301 0.375,-0.398 0.16,-0.094 0.343,-0.141 0.554,-0.141 0.207,0 0.395,0.047 0.551,0.145 0.164,0.097 0.289,0.23 0.379,0.398 0.086,0.168 0.133,0.359 0.133,0.582 0,0.219 -0.047,0.414 -0.133,0.582 -0.09,0.172 -0.215,0.301 -0.375,0.398 -0.156,0.094 -0.34,0.141 -0.547,0.141 z m 0,-0.238 c 0.156,0 0.293,-0.035 0.41,-0.11 0.117,-0.078 0.211,-0.183 0.278,-0.316 0.07,-0.133 0.101,-0.285 0.101,-0.457 0,-0.172 -0.031,-0.324 -0.101,-0.457 -0.067,-0.137 -0.165,-0.238 -0.282,-0.316 -0.121,-0.075 -0.258,-0.114 -0.414,-0.114 -0.156,0 -0.293,0.039 -0.414,0.114 -0.121,0.078 -0.215,0.179 -0.281,0.316 -0.07,0.133 -0.102,0.285 -0.102,0.457 0,0.172 0.032,0.324 0.102,0.457 0.066,0.133 0.164,0.238 0.285,0.316 0.121,0.075 0.262,0.11 0.418,0.11 z"
         style="fill:#595959;fill-opacity:1;fill-rule:nonzero;stroke:none"
         id="path606" />
      <path
         d="m 46.25,19.168 v -1.672 h 0.547 c 0.105,0 0.203,0.02 0.285,0.063 0.086,0.043 0.148,0.105 0.195,0.179 0.047,0.078 0.075,0.164 0.075,0.262 0,0.102 -0.028,0.188 -0.079,0.266 -0.05,0.074 -0.121,0.136 -0.207,0.179 -0.089,0.043 -0.187,0.067 -0.296,0.067 h -0.317 v 0.656 z m 0.945,0 -0.402,-0.688 0.16,-0.105 0.465,0.793 z m -0.742,-0.844 h 0.371 c 0.063,0 0.114,-0.012 0.164,-0.039 0.047,-0.031 0.086,-0.07 0.114,-0.117 0.031,-0.047 0.046,-0.106 0.046,-0.168 0,-0.094 -0.035,-0.172 -0.101,-0.23 -0.067,-0.059 -0.152,-0.09 -0.258,-0.09 h -0.336 z"
         style="fill:#595959;fill-opacity:1;fill-rule:nonzero;stroke:none"
         id="path608" />
      <path
         d="m 48.453,19.195 c -0.16,0 -0.301,-0.035 -0.426,-0.109 -0.121,-0.074 -0.218,-0.176 -0.289,-0.305 -0.07,-0.133 -0.105,-0.281 -0.105,-0.449 0,-0.168 0.035,-0.316 0.105,-0.449 0.071,-0.129 0.164,-0.231 0.285,-0.305 0.122,-0.074 0.262,-0.113 0.422,-0.113 0.098,0 0.196,0.019 0.289,0.058 0.09,0.032 0.176,0.082 0.246,0.149 0.075,0.062 0.133,0.137 0.172,0.223 l -0.175,0.089 c -0.032,-0.07 -0.075,-0.125 -0.133,-0.175 -0.055,-0.051 -0.117,-0.09 -0.184,-0.114 -0.07,-0.031 -0.14,-0.043 -0.215,-0.043 -0.117,0 -0.222,0.028 -0.312,0.086 -0.094,0.059 -0.168,0.137 -0.219,0.239 -0.051,0.101 -0.078,0.222 -0.078,0.355 0,0.133 0.027,0.25 0.082,0.356 0.051,0.101 0.125,0.183 0.215,0.242 0.094,0.058 0.199,0.086 0.32,0.086 0.074,0 0.149,-0.016 0.215,-0.043 0.07,-0.032 0.129,-0.075 0.184,-0.129 0.058,-0.055 0.101,-0.117 0.132,-0.188 l 0.176,0.09 c -0.039,0.086 -0.098,0.164 -0.172,0.234 -0.07,0.067 -0.152,0.122 -0.246,0.161 -0.094,0.035 -0.191,0.054 -0.289,0.054 z"
         style="fill:#595959;fill-opacity:1;fill-rule:nonzero;stroke:none"
         id="path610" />
      <path
         d="m 50.629,19.168 -0.672,-1.672 h 0.203 l 0.68,1.672 z m -1.359,0 0.679,-1.672 h 0.207 l -0.672,1.672 z m 0.32,-0.477 v -0.179 h 0.93 v 0.179 z"
         style="fill:#595959;fill-opacity:1;fill-rule:nonzero;stroke:none"
         id="path612" />
      <path
         d="m 51.922,19.168 v -2.176 h 0.707 c 0.141,0 0.266,0.031 0.371,0.09 0.109,0.055 0.195,0.137 0.254,0.242 0.062,0.102 0.094,0.223 0.094,0.36 0,0.132 -0.028,0.25 -0.082,0.355 -0.059,0.102 -0.133,0.184 -0.231,0.242 -0.097,0.059 -0.211,0.09 -0.34,0.09 h -0.511 v 0.797 z m 0.262,-1.039 h 0.511 c 0.114,0 0.207,-0.039 0.282,-0.121 0.074,-0.086 0.109,-0.196 0.109,-0.324 0,-0.137 -0.043,-0.243 -0.129,-0.329 -0.086,-0.082 -0.199,-0.121 -0.332,-0.121 h -0.441 z"
         style="fill:#595959;fill-opacity:1;fill-rule:nonzero;stroke:none"
         id="path614" />
      <path
         d="m 54.25,18.473 -0.176,-0.082 0.543,-0.895 h 0.235 z m -0.199,0.695 v -0.805 h 0.199 v 0.805 z m 0,-0.695 -0.602,-0.977 h 0.235 l 0.543,0.895 z"
         style="fill:#595959;fill-opacity:1;fill-rule:nonzero;stroke:none"
         id="path616" />
      <path
         d="M 55.43,19.168 V 17.68 h -0.532 v -0.184 h 1.266 v 0.184 h -0.531 v 1.488 z"
         style="fill:#595959;fill-opacity:1;fill-rule:nonzero;stroke:none"
         id="path618" />
      <path
         d="m 57.562,19.168 v -1.672 h 0.2 v 1.672 z m -1.148,0 v -1.672 h 0.203 v 1.672 z m 0.18,-0.77 v -0.183 h 1.011 v 0.183 z"
         style="fill:#595959;fill-opacity:1;fill-rule:nonzero;stroke:none"
         id="path620" />
      <path
         d="m 58.918,19.195 c -0.16,0 -0.301,-0.035 -0.426,-0.109 -0.125,-0.074 -0.222,-0.176 -0.293,-0.305 -0.07,-0.133 -0.105,-0.281 -0.105,-0.449 0,-0.172 0.035,-0.32 0.105,-0.449 0.071,-0.133 0.164,-0.235 0.289,-0.305 0.121,-0.074 0.262,-0.113 0.422,-0.113 0.164,0 0.305,0.039 0.426,0.113 0.125,0.074 0.223,0.176 0.289,0.305 0.07,0.133 0.105,0.281 0.105,0.449 0,0.168 -0.035,0.316 -0.105,0.449 -0.066,0.129 -0.164,0.231 -0.285,0.305 -0.121,0.074 -0.262,0.109 -0.422,0.109 z m 0,-0.183 c 0.121,0 0.227,-0.028 0.316,-0.086 0.09,-0.059 0.161,-0.141 0.211,-0.242 0.055,-0.102 0.082,-0.219 0.082,-0.352 0,-0.133 -0.027,-0.25 -0.082,-0.352 -0.05,-0.105 -0.125,-0.183 -0.215,-0.242 -0.089,-0.058 -0.199,-0.086 -0.32,-0.086 -0.117,0 -0.222,0.028 -0.316,0.086 -0.09,0.059 -0.164,0.137 -0.215,0.242 -0.055,0.102 -0.082,0.219 -0.082,0.352 0,0.133 0.027,0.25 0.082,0.352 0.051,0.101 0.125,0.183 0.219,0.242 0.093,0.058 0.199,0.086 0.32,0.086 z"
         style="fill:#595959;fill-opacity:1;fill-rule:nonzero;stroke:none"
         id="path622" />
      <path
         d="m 60.062,19.168 v -1.672 h 0.204 l 0.996,1.34 v -1.34 h 0.203 v 1.672 h -0.203 l -0.996,-1.352 v 1.352 z"
         style="fill:#595959;fill-opacity:1;fill-rule:nonzero;stroke:none"
         id="path624" />
      <path
         d="m 62.566,16.992 h 0.266 v 2.176 h -0.266 z"
         style="fill:#595959;fill-opacity:1;fill-rule:nonzero;stroke:none"
         id="path626" />
      <path
         d="m 63.344,19.168 v -1.672 h 0.203 l 0.996,1.34 v -1.34 h 0.203 v 1.672 h -0.203 l -0.996,-1.352 v 1.352 z"
         style="fill:#595959;fill-opacity:1;fill-rule:nonzero;stroke:none"
         id="path628" />
      <path
         d="M 65.527,19.168 V 17.68 h -0.531 v -0.184 h 1.266 V 17.68 H 65.73 v 1.488 z"
         style="fill:#595959;fill-opacity:1;fill-rule:nonzero;stroke:none"
         id="path630" />
      <path
         d="M 66.512,19.168 V 17.496 H 67.5 v 0.184 h -0.789 v 0.539 h 0.719 v 0.183 h -0.719 v 0.582 h 0.793 v 0.184 z"
         style="fill:#595959;fill-opacity:1;fill-rule:nonzero;stroke:none"
         id="path632" />
      <path
         d="m 67.926,19.168 v -1.672 h 0.543 c 0.109,0 0.203,0.02 0.285,0.063 0.086,0.043 0.152,0.105 0.199,0.179 0.047,0.078 0.07,0.164 0.07,0.262 0,0.102 -0.027,0.188 -0.078,0.266 -0.05,0.074 -0.117,0.136 -0.207,0.179 -0.086,0.043 -0.187,0.067 -0.297,0.067 h -0.312 v 0.656 z m 0.941,0 -0.402,-0.688 0.16,-0.105 0.465,0.793 z m -0.738,-0.844 h 0.367 c 0.063,0 0.117,-0.012 0.164,-0.039 0.047,-0.031 0.086,-0.07 0.113,-0.117 0.032,-0.047 0.047,-0.106 0.047,-0.168 0,-0.094 -0.035,-0.172 -0.101,-0.23 -0.067,-0.059 -0.149,-0.09 -0.254,-0.09 h -0.336 z"
         style="fill:#595959;fill-opacity:1;fill-rule:nonzero;stroke:none"
         id="path634" />
      <path
         d="m 69.418,19.168 v -1.672 h 0.996 v 0.184 h -0.793 v 0.57 h 0.699 v 0.184 h -0.699 v 0.734 z"
         style="fill:#595959;fill-opacity:1;fill-rule:nonzero;stroke:none"
         id="path636" />
      <path
         d="m 71.875,19.168 -0.672,-1.672 h 0.203 l 0.684,1.672 z m -1.359,0 0.679,-1.672 h 0.207 l -0.672,1.672 z m 0.324,-0.477 v -0.179 h 0.93 v 0.179 z"
         style="fill:#595959;fill-opacity:1;fill-rule:nonzero;stroke:none"
         id="path638" />
      <path
         d="m 72.988,19.195 c -0.16,0 -0.3,-0.035 -0.426,-0.109 -0.121,-0.074 -0.218,-0.176 -0.289,-0.305 -0.066,-0.133 -0.101,-0.281 -0.101,-0.449 0,-0.168 0.031,-0.316 0.101,-0.449 0.071,-0.129 0.165,-0.231 0.286,-0.305 0.125,-0.074 0.265,-0.113 0.421,-0.113 0.102,0 0.196,0.019 0.29,0.058 0.093,0.032 0.175,0.082 0.246,0.149 0.074,0.062 0.132,0.137 0.172,0.223 l -0.176,0.089 c -0.032,-0.07 -0.074,-0.125 -0.129,-0.175 -0.059,-0.051 -0.121,-0.09 -0.188,-0.114 -0.07,-0.031 -0.14,-0.043 -0.215,-0.043 -0.117,0 -0.222,0.028 -0.312,0.086 -0.094,0.059 -0.164,0.137 -0.219,0.239 -0.051,0.101 -0.074,0.222 -0.074,0.355 0,0.133 0.023,0.25 0.078,0.356 0.051,0.101 0.125,0.183 0.215,0.242 0.094,0.058 0.203,0.086 0.32,0.086 0.074,0 0.149,-0.016 0.215,-0.043 0.07,-0.032 0.133,-0.075 0.184,-0.129 0.058,-0.055 0.101,-0.117 0.133,-0.188 l 0.175,0.09 c -0.039,0.086 -0.097,0.164 -0.172,0.234 -0.07,0.067 -0.152,0.122 -0.246,0.161 -0.093,0.035 -0.191,0.054 -0.289,0.054 z"
         style="fill:#595959;fill-opacity:1;fill-rule:nonzero;stroke:none"
         id="path640" />
      <path
         d="m 74.004,19.168 v -1.672 h 0.988 v 0.184 h -0.785 v 0.539 h 0.719 v 0.183 h -0.719 v 0.582 H 75 v 0.184 z"
         style="fill:#595959;fill-opacity:1;fill-rule:nonzero;stroke:none"
         id="path642" />
      <path
         d="m 49.676,14.523 c -1.156,0 -2.176,-0.265 -3.071,-0.789 -0.89,-0.527 -1.585,-1.257 -2.089,-2.195 -0.504,-0.937 -0.754,-2.012 -0.754,-3.223 0,-1.222 0.246,-2.296 0.738,-3.222 0.5,-0.938 1.191,-1.668 2.074,-2.192 0.879,-0.527 1.895,-0.789 3.051,-0.789 1.152,0 2.172,0.266 3.051,0.805 0.89,0.527 1.582,1.258 2.074,2.195 0.492,0.926 0.734,1.992 0.734,3.203 0,1.211 -0.242,2.286 -0.734,3.223 -0.492,0.938 -1.18,1.668 -2.059,2.195 -0.867,0.524 -1.875,0.789 -3.015,0.789 z m 0,-1.32 c 0.855,0 1.609,-0.207 2.262,-0.617 0.652,-0.422 1.16,-1 1.527,-1.731 0.375,-0.734 0.562,-1.578 0.562,-2.539 0,-0.949 -0.187,-1.789 -0.562,-2.519 -0.379,-0.742 -0.899,-1.32 -1.563,-1.731 -0.648,-0.421 -1.41,-0.632 -2.277,-0.632 -0.859,0 -1.617,0.211 -2.281,0.632 -0.664,0.411 -1.184,0.989 -1.559,1.731 -0.379,0.73 -0.566,1.57 -0.566,2.519 0,0.961 0.187,1.805 0.566,2.539 0.375,0.731 0.903,1.309 1.578,1.731 0.672,0.41 1.446,0.617 2.313,0.617 z"
         style="fill:#595959;fill-opacity:1;fill-rule:nonzero;stroke:none"
         id="path644" />
      <path
         d="m 57.867,14.316 v -12 h 3.91 c 0.778,0 1.461,0.161 2.055,0.481 0.606,0.32 1.074,0.765 1.406,1.34 0.344,0.57 0.516,1.23 0.516,1.988 0,0.73 -0.156,1.383 -0.465,1.953 -0.309,0.57 -0.73,1.024 -1.266,1.352 -0.539,0.32 -1.16,0.48 -1.871,0.48 h -2.828 v 4.406 z M 59.324,8.59 h 2.828 c 0.629,0 1.145,-0.227 1.543,-0.684 0.414,-0.468 0.617,-1.062 0.617,-1.781 0,-0.746 -0.238,-1.344 -0.718,-1.801 -0.481,-0.457 -1.09,-0.687 -1.836,-0.687 h -2.434 z"
         style="fill:#595959;fill-opacity:1;fill-rule:nonzero;stroke:none"
         id="path646" />
      <path
         d="m 67.793,2.316 h 1.457 v 12 h -1.457 z"
         style="fill:#595959;fill-opacity:1;fill-rule:nonzero;stroke:none"
         id="path648" />
    </g>
  </g>
</svg>
